<svg version="1" xmlns="http://www.w3.org/2000/svg" width="1706.667" height="1706.667" viewBox="0 0 1280.000000 1280.000000"><path d="M601 333.4c-22.1 3.2-41.8 9.9-56.4 19.1-22.3 14.1-41.7 40-48.5 64.5-5.2 19-6.2 32.9-3.5 50.7 4 27.1 13.4 47 33.7 71 4.7 5.6 9.8 12.3 11.2 14.8 6.9 11.7 10.1 30.3 9.2 53.3-.7 18.3-4.6 34.1-11.3 46.1-5 8.8-11.8 8.1 76.8 7.9l78.2-.3.7-3c.4-1.7 1.5-9.3 2.4-16.9 2.7-24.1 3.3-24.4 32-19.6 19.8 3.3 33.8-1.3 38.1-12.6 2-5.2 1.5-11.2-1.5-20-3.1-8.7-2.8-10.4 2.4-15.2 2.5-2.2 4.5-4.7 4.5-5.5 0-.8-1.5-2.8-3.3-4.4l-3.3-2.8 4-2c3.8-1.9 4.1-2.3 4-6-.1-2.2-.5-6.1-.9-8.7-.7-4.3-.5-4.9 2-7.2 1.5-1.4 4.9-3.2 7.5-4.1 6.6-2.2 10-5 10-8.3 0-3.6-6.7-15.7-18.7-34.2-5.4-8.4-10.2-15.8-10.7-16.5-.7-.9-.2-2.9 1.7-6.3 3.7-6.7 3.5-10.9-1.3-28.5-7.3-27.1-11.9-38.2-22.7-54.4-15.9-24.1-44.3-42.5-75.9-49.3-12.9-2.8-46-3.6-60.4-1.6zm24.8 24c1.5.8 3.6 2.3 4.6 3.5 2.3 2.5 5.3 2.7 10.3.6 7.9-3.3 15.7-1.3 21.5 5.5l3.6 4.2 7-1.7c6-1.5 7.8-1.5 12.2-.5 7 1.7 12.7 6.3 16.4 13.3 1.8 3.3 4.4 6.5 6.2 7.6 2.7 1.7 3.9 3.6 5.8 9.3.3 1 2.6 2.7 5.1 3.9 10.6 5 15.8 16.7 12.3 28-1.3 4.6-6.8 11.3-10.8 13.4-2.4 1.2-2.8 2.1-3.3 7.5-1.7 18.8-22.4 29.9-39.2 21-3.1-1.7-5.9-3-6.1-3-.2 0-.4 2.8-.4 6.3 0 17.9-16.6 29.8-34.1 24.5-3.6-1-4.1-.9-6.5 1.3-3.7 3.4-6.2 8.6-10.9 23.1-2.3 7-4.8 13.4-5.5 14.3-1.3 1.6-7.5 2.1-8.4.7-.3-.5-1.4-5.1-2.5-10.2-1.2-5.1-2.3-9.5-2.6-9.8-.2-.2-2.4 1.6-4.8 4-2.4 2.5-6.1 5.1-8.2 5.8-5.4 1.8-12.7.8-17.5-2.4-4.5-3-9.7-11.2-10.6-16.9-.6-3.4-.9-3.8-2.8-3.1-1.2.4-4.8.8-8.1.8-7.6 0-14.8-3.2-17.1-7.7-2.1-4-1.5-12.8 1.4-18.8 1.2-2.5 2.2-4.8 2.2-5.1 0-.3-1.6-.9-3.4-1.2-7.1-1.3-13.7-12.3-15.2-25.1-.8-6.6 1.6-15.3 5.6-19.8 2.4-2.8 2.8-3.9 2.3-7.3-.4-3.1-.1-4.3 1.6-5.8 1.7-1.5 1.9-2.6 1.4-6.1-.8-6.1 1.8-11.1 7.4-13.8 3.8-1.9 4.3-2.5 4.3-5.4 0-8.6 5.7-14.4 14.9-15.1 4.1-.3 6.3-1.1 8.1-2.7 3.9-3.7 7.7-4.8 11.7-3.4 1.9.6 3.6.9 3.7.7.1-.1 1.2-1.9 2.4-3.9 1.5-2.4 3.7-4.3 6.2-5.3 5-2 7.1-2 11.7-.1 3.6 1.5 3.7 1.5 9.6-2.5 5-3.3 6.9-4 10.9-4 2.7 0 6.1.6 7.6 1.4z"/><path d="M597.2 387c-2.3 1.7-4.2 3.3-4.2 3.6 0 .3 1.1 1.5 2.5 2.6 2.7 2.1 3.2 4.7 1.3 6.6-2.1 2.1-5.6 1.4-7.5-1.4l-1.7-2.7-3.3 3.8c-1.8 2.1-3.3 4.4-3.3 5.1 0 .7 1.5 2.2 3.4 3.3 5.4 3.4 6.1 4.7 3.6 6.8-3.5 2.9-4.2 4.9-2.4 6.7 2.1 2.2 3.1 2 5.6-.9 1.2-1.4 2.7-2.5 3.4-2.5.7 0 2.7 2 4.4 4.5l3.1 4.5 4.5-3.2c2.4-1.7 4.4-3.5 4.4-3.9 0-.3-1.1-1.4-2.5-2.3-3.1-2-3.3-6.1-.4-7.6 1.6-.9 2.6-.8 4.5.5 1.3.8 2.4 2 2.4 2.5 0 2.3 2.7.7 5.4-3.2l2.9-4.1-2.6-1.9c-1.4-1-3.6-2.7-4.9-3.7l-2.3-1.9 2.9-3.1c3-3.1 3-5.6 0-6.8-1.2-.4-2.4.2-3.8 2-1.2 1.5-2.7 2.7-3.3 2.7-.7 0-2.6-2-4.4-4.5-1.8-2.5-3.3-4.5-3.4-4.5-.1 0-2.1 1.4-4.3 3zM654 396.5c-4 4.1-6.3 4.4-7.8 1-1.4-3.1-3.7-4.1-5.7-2.5-2.1 1.7-1.9 4 .6 6.6 2.7 2.8 1.9 4.1-4.2 6.8l-4.9 2.1 2.5 5.3c2.7 5.7 3.4 6.2 5.3 3.1 1-1.5 2.1-1.9 4.5-1.7 2.8.3 3.2.7 3.5 3.5.3 2.7-.2 3.4-2.8 4.8-3.4 1.8-3.4 1.9 1.9 7.7l2.4 2.8 4.3-4c2.4-2.2 4.8-4 5.4-4 .5 0 1.6 1.3 2.5 3 1.1 2.1 2.3 3 4 3 3.4 0 4.3-3.5 1.6-6.4-3.2-3.3-2.6-4.5 3.4-7.2l5.5-2.5-2.5-5c-1.4-2.7-2.8-4.9-3.1-4.9-.3 0-1.7.9-3.1 2-3.3 2.5-4.8 2.5-6.6-.1-2-2.8-1.1-5.5 2.4-6.9 1.6-.7 2.9-1.5 2.9-1.9 0-.8-7.3-8.1-8.1-8.1-.3 0-2 1.6-3.9 3.5zM554.2 436.2c-1.6 1.6-1.5 3.4.3 6.2 2.1 3.1.4 4.5-6.5 5.3l-5.2.6.7 5.1c.8 6.1 1.8 7.5 4.5 5.8 4-2.5 8-.8 8 3.3 0 2.5-1.8 4.5-3.9 4.5-4 .1-4.4 1.6-1.6 6.9 1.4 2.9 2.9 5.1 3.3 4.9.4-.2 2.8-1.4 5.3-2.7 5.3-2.7 7.9-2.3 7.9 1.2 0 2.9 2.2 5 4.7 4.5 1.8-.3 2-1.8 1.1-8.7-.3-2.6-.3-2.6 9.8-4.6 2-.4 2.1-.8 1.3-5.2-1.4-7.6-1.5-7.8-4.5-5.8-3.5 2.3-7.2 1.3-8-2.2-.5-2-.2-3.1 1.6-4.5 1.2-1 3.1-1.8 4.1-1.8 1 0 1.9-.5 1.9-1 0-1.5-3.8-8.7-4.9-9.4-.5-.3-2.9.5-5.3 1.9-5.3 3.1-7.8 3.2-7.8.4 0-4.9-3.9-7.6-6.8-4.7zM651 447.5c-.7.8-.9 2.2-.6 3.1.5 1.4 0 1.5-4.3.9-4.5-.6-4.9-.5-5.5 1.7-1 3.7-.7 4.8 1.2 4.8 2.4 0 4.2 1.9 4.2 4.5 0 3.9-5 6.1-7.7 3.4-.7-.7-1.3.2-2 3-1.1 4-1 4 2.1 5 11.7 3.6 18.7 5.3 19.3 4.8.5-.6 6.3-20.3 6.3-21.8 0-.4-1.6-1-3.5-1.3-4.1-.8-5-1.9-3.3-4.5 2.3-3.7-3.3-7.1-6.2-3.6zM599.6 453.1c-3.1 3.7-3.2 4.6-.7 5.4 1.1.3 2.3 1.5 2.6 2.6 1.3 4-3.8 6.6-6.5 3.4-1.9-2.3-2.8-1.9-5 2.4l-2 3.9 4.5 2.2c4.7 2.3 5.5 3.9 3 6-2 1.6-1.9 4.6.1 5.4 1.9.7 4.4-1 4.4-3 0-2.8 2.4-2.5 5.9 1l3.7 3.6 3.4-3.5c1.8-1.9 3.2-3.6 2.9-3.8-.2-.3-1.4-1-2.7-1.6-2.7-1.4-2.7-4.8 0-6.5 1.3-.8 2.2-.5 4.2 1.3l2.5 2.3 2-4.1c1.2-2.2 2.1-4.3 2.1-4.5 0-.3-1.8-1.5-4-2.6-4.2-2.2-5-3.9-2.5-6 1.9-1.6 1.9-3.4-.1-5.1-1.4-1.1-2-.9-4.3 1.9l-2.6 3.3-4.2-3.6-4.1-3.5-2.6 3.1zM158.4 678.8c-.6.4-13.8 28.6-29.4 62.7-15.6 34.1-35.1 77-43.5 95.2L70.2 870H216l-1.4-3.3c-.7-1.7-4.2-10-7.6-18.2-3.5-8.3-6.7-15.5-7.2-16-.5-.6-12.7-1.2-30.6-1.5l-29.8-.5 17.6-42.1 17.5-42 14.5 33.5c8 18.5 19.9 46.2 26.6 61.6l12.1 28 25.6.3c14.1.1 25.7-.1 25.7-.6 0-.4-4.3-10.2-9.6-21.7-5.3-11.6-14.3-31.4-20.1-44-5.8-12.7-14.9-32.7-20.3-44.5-5.4-11.8-15.9-34.8-23.3-51l-13.5-29.5-16.3-.2c-9-.2-16.9 0-17.5.5zM263.3 678.8c-.8.5 1.4 6.8 7.6 21.7 20.5 49 48.9 116.9 59.4 142l11.3 27 18.4.2 18.5.3 14.2-34.3c7.8-18.8 24.2-58.1 36.4-87.2 24.6-58.8 28.9-69.2 28.9-70 0-.8-46.4-.5-47.7.3-.7.4-11.4 24.8-23.8 54.2-12.4 29.4-23.3 55.3-24.3 57.4l-1.9 4-6.7-16c-3.7-8.7-14.9-34.9-24.8-58.2l-18-42.2h-23.2c-12.7 0-23.6.4-24.3.8zM512.3 678.8c-.7.5-10.1 20.1-20.9 43.8-10.8 23.6-29.3 64-41.1 89.9-11.9 25.8-22.6 49.4-23.9 52.2l-2.3 5.3h72.5c57.3 0 72.4-.3 72.3-1.3 0-.6-3.5-9.3-7.7-19.2l-7.7-18-29.9-.2c-16.4-.1-30-.3-30.1-.5-.4-.3 33.7-82.4 34.6-83.2.2-.3 12.4 27.1 26.9 60.9l26.5 61.5h25.8c14.1 0 25.7-.2 25.7-.4 0-.3-13.2-29.4-32.2-71.1-35-76.5-43.6-95.4-49-107.3l-6-13.2h-16.2c-8.8 0-16.7.4-17.3.8zM688.4 679c-7.6 1.5-19.9 7.1-26.7 12-12.8 9.5-19.6 21.8-20.4 37.5-.9 16.1 3.4 28.5 13.5 38.4 11.3 11.1 25.3 16.2 61.7 22.6 43.2 7.6 52.5 12.7 52.5 28.6 0 6.2-2.2 11.2-5.6 12.8-1.8.8-18.5 1.1-57.2 1.1-30.1 0-55.2.4-55.9.8-.7.4-4.6 9-8.7 19l-7.5 18.3 68.2-.3 68.2-.3 6.5-2.4c21.3-7.6 33.8-20.2 37.5-37.8 2.8-13 1.1-27.5-4.2-38.2-4-8-13.7-17.8-22.4-22.8-10-5.7-21.2-8.7-49-13.3-32.3-5.4-41.5-8.4-47.7-15.5-2.7-3-3.2-4.4-3.2-8.5 0-6.1 1.2-9.4 4.6-12.5l2.7-2.5h44.6c24.5 0 45.5-.3 46.6-.6 1.5-.4 3.9-5.1 9.6-19l7.6-18.4-55.6.1c-30.6.1-57.4.5-59.7.9zM819.4 678.8c-.7.4 11.5 22 34.7 61l35.9 60.3v70.4l24.7-.5 24.8-.5.3-35.7.2-35.8 35.5-59.7 35.6-59.8-24.6-.3c-14-.1-25.3.2-26.3.7-.9.5-11.4 17.2-23.2 37-11.8 19.8-21.7 36-22 36-.3 0-10.4-16.6-22.5-36.9l-22-36.9h-25c-13.7-.1-25.5.3-26.1.7zM1024.3 678.7c-1.9.7-1.8 122.8.1 133.3 2.9 15.8 10.2 28.8 23.1 40.8 16 15 37.6 22.2 66.5 22.2 29.3 0 53.2-8 69.5-23.2 8.4-7.9 16.3-18.9 19.5-27.5 4.7-12.3 4.9-16.9 5-83.6V678h-23.4c-12.9 0-24.1.3-25 .6-1.4.6-1.6 7-1.6 62.3 0 68.1.1 67.4-6.3 76.7-1.7 2.6-4.8 6-6.7 7.6-11.1 8.8-37.5 10.4-52.8 3.1-7.1-3.4-11.8-8.2-15.6-16.2l-3.1-6.6-.3-63.8-.3-63.7-23.7.1c-13 0-24.3.3-24.9.6zM346.5 896.5c-.5.2-2.6.6-4.6.9-4.8.8-12.2 7.4-14.4 12.8-2.2 5.5-2.4 18.9-.3 23.8 4 9.5 11.2 14 22.3 14 8.4 0 13.7-2.1 18.2-7.3 4.1-4.7 5.7-9.8 5.7-18.2 0-3.9-.6-8.7-1.3-10.8-1.7-4.9-6.4-10.3-11-12.6-3.5-1.8-12.5-3.4-14.6-2.6zm11.6 12.1c3.9 3.7 5.3 8.4 4.6 16-.8 10-5.1 14.8-13.2 14.6-9.1-.1-14.3-7.7-13.2-19.4.6-7 2.7-10.4 7.8-13.1 4.6-2.4 10.3-1.7 14 1.9zM511.7 897.1c-5 1.2-8.5 3.6-10.3 7-3.2 6.2-.6 15.2 5.3 18.3 1.6.8 5.5 2.2 8.8 3.1 9.2 2.5 11.4 3.5 12 5.6 1.7 5.1-4.3 9.6-11.1 8.3-3.6-.7-8.4-5.3-8.4-8.1 0-1.2-.8-1.4-3.7-.9-2.1.3-4.4.6-5.2.6-1.8 0-.8 5.2 2.1 9.8 3 4.8 8.6 7.2 17.3 7.2 12.9 0 19.5-5.3 19.5-15.5 0-9-3.8-12.6-17.5-16.5-8.7-2.5-10.5-3.6-10.5-6.6 0-2.7 3-4.4 8.1-4.4 4 0 6.8 1.6 7.9 4.6.8 2.1 1.6 2.4 6.1 2.4h5.2l-.7-3.3c-1.4-6.9-6.9-11.1-16.1-12-2.7-.3-6.7-.1-8.8.4zM563 896.9c-7.1 1.5-12 5.2-15.6 12.1-1.5 2.7-1.9 5.7-1.9 13.5 0 9.2.2 10.4 2.8 14.8 4.1 6.9 9.4 10.1 17.7 10.5 8.7.5 14.8-2 18.3-7.5 4-6.2 4.3-8.1 1.2-9.3-6.3-2.4-7.2-2.3-8.3.8-2.5 7.4-11.1 9.7-17.1 4.7-5.3-4.5-6.5-18.5-2.3-25.7 2.2-3.7 7.5-6.2 11.7-5.4 3.1.6 8.5 5.4 8.5 7.6 0 .9 8-.8 9.4-2.1 1.5-1.4-3.7-9-7.9-11.4-4.5-2.6-11.3-3.6-16.5-2.6zM754.2 897c-2.3.5-5.2 1.6-6.4 2.4-5.8 4.1-7.5 12.1-3.7 18.3 2.5 4 5.3 5.6 14.7 8.2 9.7 2.7 11.2 3.6 11.2 7.1 0 6.2-11.3 8.9-16.5 4-1.4-1.3-2.5-2.8-2.5-3.4-.1-3-1.8-3.8-6.4-3.1-4.6.7-4.7.8-4.1 3.9 1.1 4.8 4.6 9.4 9.1 11.6 4.5 2.2 14.4 2.7 20.6 1 7.1-2 11.8-10.9 9.7-18.5-1.6-5.8-5.5-9-14-11.4-11.2-3.3-13.9-4.7-13.9-7.4 0-4.9 10.3-6.5 14.5-2.2 1.4 1.3 2.5 2.9 2.5 3.5 0 .5 2.2 1 5.1 1h5.2l-.7-3.3c-1.8-9-12.4-14.1-24.4-11.7zM934.2 897.1c-12.3 2.4-19.4 14.1-17.8 29.1.7 7.1 3.3 12.5 8 16.5 4.8 4.3 9.5 5.6 18.1 5.1 6.2-.3 8.1-.8 11.7-3.3 6.5-4.5 9.8-11.8 9.8-21.3 0-9.4-1.4-14.2-5.6-19.1-5.2-6-15-8.9-24.2-7zm13.3 10.3c4.2 2.7 6 7.3 5.9 15.1-.1 11.2-4.3 16.6-13.1 16.8-8.3.1-13.3-6.3-13.3-16.8.1-7.8 2.6-13.6 7.1-15.8 3.9-2 9.7-1.7 13.4.7zM1001.7 897.4c-8.3 2.3-12.3 8.5-10.6 16.4 1.3 6.1 5.4 9.1 17.3 12.4 10.5 2.9 13.1 6.2 8.4 10.5-6.2 5.6-17.8 2.1-17.8-5.3 0-1.4-.7-1.6-3.7-1-2.1.3-4.4.6-5 .6-2 0-1.5 4.1 1 8.5 3.2 5.7 9.1 8.5 18.2 8.5 12.2 0 19.5-5.7 19.5-15.3 0-8.7-4.3-12.7-18-16.7-10.7-3.1-13.5-6.1-8.8-9.4 3.3-2.3 10.3-2.1 12.8.4 1.1 1.1 2 2.7 2 3.5 0 1.2 1.3 1.5 5.6 1.5h5.6l-.7-2.8c-1.1-4.7-3.9-8.4-7.5-10.3-4.9-2.4-12.6-3.1-18.3-1.5zM1184.8 897.4c-5.4 1.5-7.4 2.9-9.4 6.7-3.2 6.2-.6 15.2 5.3 18.3 1.6.8 5.5 2.2 8.8 3.1 9.2 2.5 11.4 3.5 12 5.6 1.7 5.1-4.3 9.6-11.1 8.3-3.6-.7-8.4-5.3-8.4-8.1 0-1.3-.8-1.4-4.7-.8-2.7.4-5 .8-5.1 1-.8.7.9 6.2 2.9 9.3 2.8 4.7 8.8 7.2 17.4 7.2 12.6 0 19.5-5.6 19.5-15.9 0-8.3-4-12.1-16.5-15.6-9-2.6-11.5-4.1-11.5-7.1 0-2.7 3-4.4 8-4.4 4.2 0 5.9.9 7.6 4.1 1.3 2.6 1.9 2.9 6.5 2.9h5.1l-.7-3.3c-1-4.5-4.2-8.7-7.9-10.2-5-2.1-12.7-2.5-17.8-1.1zM68 901.5v4.5h14v41h11v-41h14v-9H68v4.5zM113.2 916.3c.5 22.2 1.4 25.5 8.4 29.4 5.4 3.1 17.6 3.2 23.4.3 6.9-3.5 7.5-5.7 7.8-28.8l.3-20.2h-10l-.3 19c-.3 18-.4 19.1-2.5 21.1-3.4 3.4-10.8 3.1-14-.5-2.2-2.6-2.3-3.3-2.3-21.2V897h-11.3l.5 19.3zM164 921.9V947h10v-20h3.1c4.7 0 6.2 1.2 12.3 10.5 3.2 4.7 6.3 8.8 7 9.1.8.3 3.6.4 6.4.2l5.1-.3-5-8c-2.8-4.4-6.5-9.2-8.2-10.6l-3.1-2.7 3.1-.6c7.6-1.7 11.6-12 7.8-20-2.8-6-5.9-6.9-23.2-7.4l-15.3-.4v25.1zm27-14.9c2.6 1.4 3.4 5.7 1.5 8.6-1.4 2.2-2.2 2.4-10 2.4H174v-12h7.6c4.1 0 8.4.4 9.4 1zM213 922v25h9.9l.3-15.7.3-15.6 9.5 15.6 9.5 15.7H253v-50h-4.5c-2.5 0-4.5.3-4.6.7 0 .5-.1 8-.1 16.7-.1 11.8-.4 15.5-1.2 14.4-.6-.8-5.1-8.3-10.1-16.6l-9-15.1-5.2-.1H213v25zM277.2 899.2c.8 1.3 4.9 7.8 9.1 14.5L294 926v21h11V925.7l4.2-6.6c2.3-3.6 6.3-10.1 9-14.4l4.8-7.7h-11.9l-5.7 10-5.7 10.1-5.6-9.8-5.7-9.8-6.3-.3-6.4-.3 1.5 2.3zM381.2 916.7c.4 21.9.9 24.1 7 28.5 2.9 2 4.4 2.3 13 2.3 10.5 0 12.8-.9 17.2-6.9 1.9-2.5 2.1-4.4 2.4-23.2l.3-20.4h-9.9l-.4 19c-.3 17.9-.4 19.1-2.5 21.1-3.1 3.2-10.4 3.1-13.8-.1-2.5-2.3-2.5-2.4-2.5-21.2V897h-11.2l.4 19.7zM431 921.9V947h11v-20h3.5c4.3 0 6.2 1.9 13.2 12.5l4.8 7.5h12.4l-4.6-7.4c-2.4-4-6-8.8-7.9-10.7l-3.3-3.2 3.9-1.8c9.9-4.4 10.7-18.5 1.4-24.6-2.2-1.4-5.5-1.8-18.6-2.1l-15.8-.4v25.1zm28.1-14.9c2.2 1.2 2.7 7.8.7 9.8-.7.7-4.4 1.2-9.5 1.2H442v-12h7.6c4.1 0 8.4.5 9.5 1zM610.1 899.2c-4.9 12.4-18.1 46.9-18.1 47.3 0 .3 2.4.5 5.3.5h5.4l1.9-5.5 1.8-5.6 10 .3 9.9.3 2 5.2 2 5.3h5.4c4.8 0 5.4-.2 4.9-1.8-.4-.9-4.8-12.2-9.8-25l-9.2-23.2h-5.3c-4.6 0-5.5.3-6.2 2.2zm9.3 18.9c1.4 3.8 2.6 7.4 2.6 8 0 .5-2.7.9-6.1.9-5.4 0-6-.2-5.4-1.8.3-.9 1.6-4.5 2.8-8 1.2-3.4 2.5-6.2 2.8-6.2.4 0 1.8 3.2 3.3 7.1zM646 921.9V947h11v-20h3.6c4.3 0 7.4 2.9 13.7 13.1l4.2 6.9h12.7l-2.3-3.8c-5.3-8.6-9.9-14.9-12.1-16.4l-2.3-1.5 3.2-.7c1.8-.4 4.6-2.3 6.3-4.2 2.5-2.9 3-4.3 3-8.6 0-5.9-2.5-10.8-6.7-12.8-1.8-.9-8.4-1.5-18.5-1.8l-15.8-.4v25.1zm29-13.9c2.4 2.4 2.5 4.8.4 7.8-1.4 2-2.4 2.2-10 2.2H657v-12h8c6.7 0 8.3.3 10 2zM696 922v25h38v-8h-27v-12.9l12.3-.3 12.2-.3.3-4.3.3-4.2H707v-11h26v-9h-37v25zM808 922v25h10v-50h-10v25zM827 922v25h9.9l.3-15.5.3-15.5 9.4 15.5 9.4 15.5H867v-50h-10l-.2 16-.3 16.1-9.8-16.1-9.8-16H827v25zM874 901.5v4.5h14v41h11v-41h14v-9h-39v4.5zM1034 901.5v4.5h14v41h11v-41h14v-9h-39v4.5zM1088.7 897.7c-.8 1.3-18.7 48-18.7 48.7 0 .3 2.4.6 5.3.6h5.3l1.8-5.5 1.7-5.6 10.1.3 10 .3 2 5.2 1.9 5.3h5.6c4.8 0 5.4-.2 4.9-1.8-.4-.9-4.8-12.2-9.9-25l-9.2-23.2h-5.2c-2.8 0-5.4.3-5.6.7zm8.7 20.7c1.4 4.1 2.6 7.7 2.6 8 0 .3-2.7.6-6.1.6-4.5 0-6-.3-5.7-1.3.3-.6 1.6-4.2 2.9-8 1.3-3.7 2.7-6.7 3-6.7.4 0 1.8 3.3 3.3 7.4zM1124 921.9V947h11v-20h3.1c4.7 0 6.1 1.2 12.5 10.9l5.9 9.1h6.3c4.8 0 6.1-.3 5.6-1.3-4.2-7.1-11.7-17.5-13.5-18.5-2.1-1.4-2.1-1.4 1.7-3.2 5.6-2.5 7.6-5.2 8.2-10.8.5-6.1-1.6-11.1-6.1-13.7-2.7-1.6-5.7-2-18.9-2.3l-15.8-.4v25.1zm28.5-14.5c2.1 1.5 2.5 6.7.5 9-.9 1.2-3.3 1.6-9.6 1.6h-8.4v-12h7.8c5 0 8.5.5 9.7 1.4z"/></svg>